<?xml version="1.0" encoding="utf-8"?>
<!DOCTYPE svg PUBLIC "-//W3C//DTD SVG 1.1//EN" "http://www.w3.org/Graphics/SVG/1.1/DTD/svg11.dtd">
<svg version="1.1" id="ms-icon-search" xmlns="http://www.w3.org/2000/svg" xmlns:xlink="http://www.w3.org/1999/xlink" x="0px"
	 y="0px" viewBox="281 281 50 50" enable-background="new 281 281 50 50" xml:space="preserve">
<path id="icon-search" d="M326.4,291.4c-2.2-4-6.1-6.7-10.5-7.9c-1.2-0.2-2.6-0.4-4-0.4c-7.9,0-14.7,5.3-16.6,12.9
	c-1.1,4.5-0.3,8.9,1.8,12.6c-0.1,0.1-0.3,0.2-0.4,0.4l-12.5,12.5c-1.6,1.6-1.6,4.4,0,6.3c1,0.8,2,1.2,3.2,1.2c1,0,2.2-0.4,3-1.4
	L303,315c0.1-0.1,0.1-0.1,0.2-0.2c1.4,0.9,3,1.6,4.7,2c1.4,0.2,2.6,0.4,4,0.4c7.9,0,14.7-5.3,16.6-12.9
	C329.7,299.8,328.8,295.2,326.4,291.4z M323.4,302.9c-1.2,5.5-6.1,9.1-11.5,9.1c-1,0-1.8,0-2.8-0.4c-6.3-1.4-10.1-7.9-8.7-14.3
	c1.4-5.3,6.1-8.9,11.5-8.9c1,0,2,0,2.8,0.4c3,0.6,5.7,2.6,7.3,5.3C323.6,296.8,324.2,299.8,323.4,302.9z"/>
</svg>
