<?xml version="1.0" encoding="utf-8"?>
<!DOCTYPE svg PUBLIC "-//W3C//DTD SVG 1.1//EN" "http://www.w3.org/Graphics/SVG/1.1/DTD/svg11.dtd">
<svg version="1.1" id="ms-icon-plus" xmlns="http://www.w3.org/2000/svg" xmlns:xlink="http://www.w3.org/1999/xlink" x="0px" y="0px"
	 viewBox="281 281 50 50" enable-background="new 281 281 50 50" xml:space="preserve">
<path fill="#DC3C00" d="M306,326c11.1,0,20-9,20-20s-9-20-20-20s-20,9-20,20S294.9,326,306,326z M306,329c-12.7,0-23-10.3-23-23
	s10.3-23,23-23c12.7,0,23,10.3,23,23S318.7,329,306,329L306,329z M308.1,317.6h-4.1v-9.5h-9.5v-4.1h9.5v-9.5h4.1v9.5h9.5v4.1h-9.5
	V317.6z"/>
</svg>
