<?xml version="1.0" encoding="utf-8"?>
<!DOCTYPE svg PUBLIC "-//W3C//DTD SVG 1.1//EN" "http://www.w3.org/Graphics/SVG/1.1/DTD/svg11.dtd">
<svg version="1.1" id="icon-rss-white" xmlns="http://www.w3.org/2000/svg" xmlns:xlink="http://www.w3.org/1999/xlink" x="0px" y="0px" viewBox="-289 413 50 50" enable-background="new -289 413 50 50" xml:space="preserve">
<path id="ms-icon-rss-white" fill="#FFFFFF" d="M-280.9,448.7c-3.4,0-6.1,2.8-6.1,6.1c0,3.4,2.7,6.1,6.1,6.1c3.4,0,6.1-2.7,6.1-6.1
	C-274.7,451.5-277.5,448.7-280.9,448.7z M-287,430.6v8.8c5.7,0,11.1,2.2,15.2,6.3c4.1,4.1,6.3,9.5,6.3,15.2h8.9
	C-256.6,444.3-270.3,430.6-287,430.6L-287,430.6z M-287,415v8.8c20.5,0,37.1,16.7,37.1,37.2h8.8C-241,435.6-261.6,415-287,415
	L-287,415z"/>
</svg>
