<svg xmlns="http://www.w3.org/2000/svg" xmlns:xlink="http://www.w3.org/1999/xlink" preserveAspectRatio="xMidYMid" width="35" height="27" viewBox="0 0 35 27">
  <defs>
    <style>

      .cls-2 {
        fill: #ffffff;
      }
    </style>
  </defs>
  <path d="M17.448,13.544 C17.448,13.544 1.084,0.373 1.084,0.373 C1.414,0.165 1.779,0.013 2.194,0.013 C2.194,0.013 32.702,0.013 32.702,0.013 C33.117,0.013 33.482,0.165 33.812,0.372 C33.812,0.372 17.448,13.544 17.448,13.544 ZM17.448,18.055 C17.448,18.055 34.882,3.293 34.882,3.293 C34.882,3.293 34.882,24.821 34.882,24.821 C34.882,26.066 33.906,27.075 32.702,27.075 C32.702,27.075 2.194,27.075 2.194,27.075 C0.990,27.075 0.015,26.066 0.015,24.821 C0.015,24.821 0.015,3.293 0.015,3.293 C0.015,3.293 17.448,18.055 17.448,18.055 Z" id="path-1" class="cls-2" fill-rule="evenodd"/>
</svg>
