<?xml version="1.0" encoding="utf-8"?>
<!-- Generator: Adobe Illustrator 21.0.0, SVG Export Plug-In . SVG Version: 6.00 Build 0)  -->
<svg version="1.1" id="Capa_1" xmlns="http://www.w3.org/2000/svg" xmlns:xlink="http://www.w3.org/1999/xlink" x="0px" y="0px"
	 viewBox="0 0 512 512" style="enable-background:new 0 0 512 512;" xml:space="preserve">
<style type="text/css">
	.st0{fill:#FFFFFF;}
</style>
<g>
	<path class="st0" d="M129.1,223.3L55.9,96.4C102.8,37.7,175,0,256,0c93.7,0,175.7,50.4,220.3,125.5H267.4
		c-3.8-0.3-7.5-0.5-11.4-0.5C195.1,125,143.7,166.8,129.1,223.3z M347.7,162.5h146.7c11.4,29,17.6,60.5,17.6,93.5
		c0,140.4-113.1,254.4-253.1,256l104.7-181.3c14.7-21.2,23.4-46.9,23.4-74.6C387,219.4,371.9,186.3,347.7,162.5z M163,256
		c0-51.3,41.7-93,93-93c51.3,0,93,41.7,93,93c0,51.3-41.7,93-93,93C204.7,349,163,307.3,163,256z M291.1,382.2l-73.3,126.9
		C94.5,490.7,0,384.4,0,256c0-45.6,11.9-88.4,32.8-125.5l104.5,181C158.3,356.1,203.6,387,256,387
		C268.1,387,279.9,385.3,291.1,382.2z"/>
</g>
</svg>
