<?xml version="1.0" encoding="utf-8"?>
<!-- Generator: Adobe Illustrator 21.0.0, SVG Export Plug-In . SVG Version: 6.00 Build 0)  -->
<svg version="1.1" id="Layer_1" xmlns="http://www.w3.org/2000/svg" xmlns:xlink="http://www.w3.org/1999/xlink" x="0px" y="0px"
	 viewBox="0 0 305 305" style="enable-background:new 0 0 305 305;" xml:space="preserve">
<style type="text/css">
	.st0{fill:#FFFFFF;}
</style>
<g id="XMLID_21_">
	<path id="XMLID_22_" class="st0" d="M302,103.9c-1.1-0.2-2.2,0.4-2.7,1.4l-3.4,7.6c-1.3-9.9-3.7-25.9-6.9-36.4
		c-4.8-16.1-15.1-26.6-15.5-27c-0.8-0.8-2-1-3-0.4c-1,0.5-1.5,1.6-1.2,2.7l2.7,11.9c-6.4-6.7-16.6-16.2-26.8-20.9
		c-2.4-1.2-4.9-2.3-7.1-3.2c-22-19.6-50.3-30.4-79.6-30.4c-41.3,0-78.9,20.7-101.2,55.5c-2.1-1.7-5-4.7-6.7-8.9
		c-3.1-7.5-4.6-16-4.6-16c-0.2-0.9-0.8-1.6-1.7-1.9c-0.9-0.3-1.8-0.1-2.5,0.6C23.3,56,25.1,83.5,25.8,89.7c-2.3,2.4-8.7,9.6-15.2,20
		C2.6,122.7,0.1,145.3,0,146.2c-0.1,1.1,0.5,2.1,1.4,2.5c1,0.4,2.1,0.2,2.9-0.6l5.4-5.7c-0.6,2.2-1.2,4.6-1.7,7.4
		c-2.4,12-1.7,30.6-1.7,31.3c0,1.1,0.9,2.1,2,2.4c1.1,0.2,2.3-0.3,2.8-1.4l3.2-6.7c2.3,16.3,11.3,51,45.6,82.9
		c25.4,23.7,60.8,37.3,97,37.3c0,0,0,0,0,0c35.2,0,68.4-12.6,96-36.4c32.7-28.2,44.9-68.4,49.3-97.2c4.8-31.1,2-55.2,1.9-56.2
		C303.9,104.9,303.1,104.1,302,103.9z M246.2,104.8c0,0,3.4,4.5,4.2,15.9c0.5,8.5-1.2,22.1-2.3,29.6l-6.7-7.7
		c-0.7-0.8-1.9-1.1-2.9-0.7c-1,0.4-1.6,1.5-1.5,2.6c0,0.2,2.3,19.4-1.5,36.2c-1.8,7.9-4.6,13.5-7.1,17.2l0.9-12.6
		c0.1-1.2-0.7-2.3-1.9-2.6c-1.2-0.3-2.4,0.3-2.9,1.4c-0.1,0.2-11.7,25-43.3,34.9c-4.4,1.4-9.1,2.1-13.8,2.1
		c-16.9,0-32.2-8.6-40.8-14.6c0.7,0,1.5,0.1,2.2,0.1c12.4,0,22-5.4,29.7-9.7c2-1.1,3.9-2.2,5.8-3.1c11-5.6,16.2-6,20.1-6
		c2.1,0,3.7-1.2,4.2-3.2c1.2-4.8-4.5-13.4-11.7-17.3c-3.5-1.9-7.3-2.8-11.9-2.8c-7.3,0-16.3,2.3-29.3,5.8c-2.4,0.6-4.7,1-7,1
		c-7.9,0-13.2-3.8-16.2-7.1c-4-4.3-6.3-10.1-6-14.9c0.2-2.2,1-4.5,6.3-4.5c4.7,0,9.9,1.9,10,2c0.3,0.1,0.6,0.2,0.9,0.2c0,0,0,0,0,0
		c1.4,0,2.5-1.1,2.5-2.5c0-0.1,0-0.3,0-0.4l-0.7-21.9c2.5-1.6,8.6-5.5,14.4-9.7c14.1-10.2,15.9-14.1,14.4-17.1
		c-2-4-7.2-4.7-13.3-5.5c-3.5-0.4-7.4-0.9-11-2.1c-7.4-2.5-12.3-8.9-13.4-10.4c-0.2-1.3-0.8-5.8,1.4-9.5
		c2.4-4.1,10.5-10.5,13.4-12.7c0.8-0.6,1.2-1.7,1-2.7c-0.3-1-1.1-1.7-2.1-1.8c-0.3,0-7.7-0.8-19.9,3.3c-9.9,3.3-17.6,8.7-20.3,10.7
		c-1.1-0.2-3.1-0.5-6.3-0.9c19-21.5,46-33.7,74.8-33.7c21.1,0,41,6.4,58,18.6l-16.8,2.8c-1.1,0.2-2,1.1-2.1,2.3
		c-0.1,1.2,0.6,2.2,1.8,2.6c0.2,0.1,22.6,7.1,39.3,20c3.7,2.9,7.1,6.7,10.1,11.2c2.8,6,5,12.1,6.5,18.4l-5.6-4.4
		c-1-0.8-2.4-0.7-3.3,0.2C245.5,102.4,245.4,103.8,246.2,104.8z"/>
</g>
</svg>
