<?xml version="1.0" encoding="utf-8"?>
<!DOCTYPE svg PUBLIC "-//W3C//DTD SVG 1.1//EN" "http://www.w3.org/Graphics/SVG/1.1/DTD/svg11.dtd">
<svg version="1.1" id="Layer_1" xmlns="http://www.w3.org/2000/svg" xmlns:xlink="http://www.w3.org/1999/xlink" x="0px" y="0px"
	 viewBox="7 1 50 50" enable-background="new 7 1 50 50" xml:space="preserve">
<path fill="#FFFFFF" d="M19.2,8c0,2.8-2,5-5.4,5c-3.1,0-5.2-2.2-5.2-5c0-2.8,2.1-5,5.3-5S19.2,5.2,19.2,8z M8.9,49V16.9h10V49
	C18.9,49,8.9,49,8.9,49z M24.9,27.1c0-4-0.1-7.3-0.3-10.2h8.7l0.5,4.5h0.2c1.3-2.1,4.5-5.2,9.9-5.2c6.6,0,11.5,4.4,11.5,13.8v19h-10
	V31.2c0-4.1-1.4-7-5.1-7c-2.8,0-4.4,1.9-5.1,3.7c-0.3,0.7-0.3,1.6-0.3,2.5V49h-10C24.9,49,24.9,27.1,24.9,27.1z"/>
</svg>
