<?xml version="1.0" encoding="utf-8"?>
<!DOCTYPE svg PUBLIC "-//W3C//DTD SVG 1.1//EN" "http://www.w3.org/Graphics/SVG/1.1/DTD/svg11.dtd">
<svg version="1.1" id="Layer_1" xmlns="http://www.w3.org/2000/svg" xmlns:xlink="http://www.w3.org/1999/xlink" x="0px" y="0px"
	 viewBox="-273 429 50 50" enable-background="new -273 429 50 50" xml:space="preserve">
<path fill="#FFFFFF" d="M-225,440.8c-1.7,0.8-3.5,1.3-5.4,1.5c1.9-1.2,3.4-3,4.2-5.2c-1.8,1.1-3.8,1.9-6,2.3c-1.7-1.8-4.2-3-6.9-3
	c-5.2,0-9.4,4.2-9.4,9.4c0,0.7,0.1,1.5,0.2,2.2c-7.8-0.4-14.8-4.2-19.5-9.9c-0.8,1.4-1.3,3-1.3,4.7c0,3.3,1.7,6.2,4.2,7.9
	c-1.5-0.1-3-0.5-4.3-1.2c0,0,0,0.1,0,0.1c0,4.6,3.3,8.4,7.6,9.3c-0.8,0.2-1.6,0.3-2.5,0.3c-0.6,0-1.2-0.1-1.8-0.2
	c1.2,3.7,4.7,6.5,8.8,6.6c-3.2,2.5-7.3,4-11.7,4c-0.8,0-1.5,0-2.2-0.1c4.2,2.7,9.1,4.2,14.5,4.2c17.4,0,26.9-14.4,26.9-26.9
	c0-0.4,0-0.8,0-1.2C-227.9,444.4-226.3,442.7-225,440.8L-225,440.8z"/>
</svg>
