<?xml version="1.0" encoding="utf-8"?>
<!DOCTYPE svg PUBLIC "-//W3C//DTD SVG 1.1//EN" "http://www.w3.org/Graphics/SVG/1.1/DTD/svg11.dtd">
<svg version="1.1" id="icon-email-circle" xmlns="http://www.w3.org/2000/svg" xmlns:xlink="http://www.w3.org/1999/xlink" x="0px"
	 y="0px" viewBox="0 842 50 50" enable-background="new 0 842 50 50" xml:space="preserve">
<path id="circle" fill="#FFFFFF" d="M25,891c-13.3,0-24-10.7-24-24s10.7-24,24-24s24,10.7,24,24S38.3,891,25,891z M25,846
	c-11.5,0-21,9.4-21,21s9.4,21,21,21s21-9.4,21-21S36.5,846,25,846z"/>
<path id="email" fill="#FFFFFF" d="M34.3,874.9H15.7c-0.6,0-1-0.5-1-1v-13.8c0-0.6,0.5-1,1-1h18.5c0.6,0,1.1,0.4,1.1,1v13.8
	C35.3,874.4,34.8,874.9,34.3,874.9z M16.8,872.9h16.5v-9.4l-7.7,6c-0.4,0.3-0.9,0.3-1.3,0l-7.4-5.8V872.9z M17,861.1l7.9,6.1
	l7.9-6.1H17L17,861.1z"/>
</svg>
