<?xml version="1.0" encoding="utf-8"?>
<!-- Generator: Adobe Illustrator 19.0.0, SVG Export Plug-In . SVG Version: 6.00 Build 0)  -->
<svg version="1.1" id="ms-icon-search" xmlns="http://www.w3.org/2000/svg" xmlns:xlink="http://www.w3.org/1999/xlink" x="0px"
	 y="0px" viewBox="17 -19 50 50" style="enable-background:new 17 -19 50 50;" xml:space="preserve">
<style type="text/css">
	.st0{fill:#FFFFFF;}
</style>
<path class="st0" d="M19.5,4.2c1.9,7.6,8.7,12.9,16.6,12.9c1.4,0,2.6-0.2,4-0.4c1.7-0.4,3.3-1.1,4.7-2c0.1,0.1,0.1,0.1,0.2,0.2
	l12.6,12.6c0.8,1,2,1.4,3,1.4c1.2,0,2.2-0.4,3.2-1.2c1.6-1.9,1.6-4.7,0-6.3L51.3,8.9c-0.1-0.2-0.3-0.3-0.4-0.4
	c2.1-3.7,2.9-8.1,1.8-12.6c-1.9-7.6-8.7-12.9-16.6-12.9c-1.4,0-2.8,0.2-4,0.4c-4.4,1.2-8.3,3.9-10.5,7.9C19.2-4.8,18.3-0.3,19.5,4.2
	z M27.1-5.3c1.4-2.4,3.8-4.2,6.5-4.7c0.7-0.4,1.6-0.4,2.5-0.4c4.8,0,9,3.2,10.3,8c1.3,5.7-2.1,11.5-7.8,12.8
	c-0.9,0.4-1.6,0.4-2.5,0.4c-4.8,0-9.2-3.2-10.3-8.1C25.1-0.2,25.6-2.9,27.1-5.3z"/>
</svg>
