<svg xmlns="http://www.w3.org/2000/svg" xmlns:xlink="http://www.w3.org/1999/xlink" preserveAspectRatio="xMidYMid" width="30" height="29" viewBox="0 0 30 29">
  <defs>
    <style>

      .cls-2 {
        fill: #555555;
      }
    </style>
  </defs>
  <path d="M22.762,28.483 C22.762,28.483 22.762,18.123 22.762,18.123 C22.762,15.999 22.160,13.872 19.709,13.872 C17.257,13.872 16.232,15.999 16.232,18.174 C16.232,18.174 16.232,28.483 16.232,28.483 C16.232,28.483 9.692,28.483 9.692,28.483 C9.692,28.483 9.692,9.514 9.692,9.514 C9.692,9.514 16.232,9.514 16.232,9.514 C16.232,9.514 16.232,12.068 16.232,12.068 C17.953,9.836 19.449,8.915 22.160,8.915 C24.873,8.915 29.284,10.207 29.284,17.699 C29.284,17.699 29.284,28.483 29.284,28.483 C29.284,28.483 22.762,28.483 22.762,28.483 ZM3.648,6.701 C1.630,6.701 -0.004,5.204 -0.004,3.356 C-0.004,1.506 1.630,0.007 3.648,0.007 C5.665,0.007 7.299,1.506 7.299,3.356 C7.299,5.204 5.665,6.701 3.648,6.701 ZM6.911,28.483 C6.911,28.483 0.361,28.483 0.361,28.483 C0.361,28.483 0.361,9.514 0.361,9.514 C0.361,9.514 6.911,9.514 6.911,9.514 C6.911,9.514 6.911,28.483 6.911,28.483 Z" id="path-1" class="cls-2" fill-rule="evenodd"/>
</svg>
