<svg xmlns="http://www.w3.org/2000/svg" xmlns:xlink="http://www.w3.org/1999/xlink" preserveAspectRatio="xMidYMid" width="14" height="33" viewBox="0 0 14 33">
  <defs>
    <style>

      .cls-2 {
        fill: #ffffff;
      }
    </style>
  </defs>
  <path d="M10.543,5.115 C10.543,5.115 13.508,5.115 13.508,5.115 C13.508,5.115 13.508,-0.001 13.508,-0.001 C13.508,-0.001 9.874,-0.001 9.874,-0.001 C9.874,-0.001 9.874,0.022 9.874,0.022 C4.188,0.234 3.020,3.615 2.919,7.166 C2.919,7.166 2.908,7.166 2.908,7.166 C2.908,7.166 2.908,11.271 2.908,11.271 C2.908,11.271 0.004,11.271 0.004,11.271 C0.004,11.271 0.004,16.387 0.004,16.387 C0.004,16.387 2.908,16.387 2.908,16.387 C2.908,16.387 2.908,32.760 2.908,32.760 C2.908,32.760 8.715,32.760 8.715,32.760 C8.715,32.760 8.715,16.387 8.715,16.387 C8.715,16.387 13.070,16.387 13.070,16.387 C13.070,16.387 13.931,11.271 13.931,11.271 C13.931,11.271 8.715,11.271 8.715,11.271 C8.715,11.271 8.715,7.564 8.715,7.564 C8.715,6.369 9.467,5.115 10.543,5.115 Z" id="path-1" class="cls-2" fill-rule="evenodd"/>
</svg>
