<svg xmlns="http://www.w3.org/2000/svg" xmlns:xlink="http://www.w3.org/1999/xlink" preserveAspectRatio="xMidYMid" width="32" height="28" viewBox="0 0 32 28">
  <defs>
    <style>

      .cls-2 {
        fill: #555555;
      }
    </style>
  </defs>
  <path d="M32.080,3.250 C31.540,3.559 29.919,4.178 28.410,4.331 C29.378,3.788 30.812,2.012 31.167,0.599 C30.235,1.219 28.095,2.119 27.040,2.119 C27.040,2.119 27.040,2.121 27.040,2.121 C25.834,0.814 24.138,-0.002 22.257,-0.002 C18.602,-0.002 15.639,3.075 15.639,6.868 C15.639,7.395 15.698,7.909 15.806,8.402 C15.806,8.402 15.805,8.402 15.805,8.402 C10.848,8.267 5.427,5.687 2.163,1.272 C0.156,4.878 1.893,8.889 4.170,10.351 C3.391,10.412 1.956,10.257 1.280,9.573 C1.235,11.967 2.343,15.139 6.385,16.290 C5.607,16.724 4.229,16.599 3.630,16.506 C3.840,18.528 6.565,21.170 9.545,21.170 C8.483,22.445 4.487,24.759 0.003,24.023 C3.048,25.947 6.598,27.061 10.355,27.061 C21.031,27.061 29.322,18.076 28.876,6.992 C28.874,6.980 28.874,6.968 28.873,6.955 C28.874,6.926 28.876,6.898 28.876,6.868 C28.876,6.834 28.873,6.801 28.872,6.768 C29.844,6.078 31.148,4.857 32.080,3.250 Z" id="path-1" class="cls-2" fill-rule="evenodd"/>
</svg>
